<?xml version="1.0" standalone="no"?>
<!DOCTYPE svg PUBLIC "-//W3C//DTD SVG 20010904//EN"
 "http://www.w3.org/TR/2001/REC-SVG-20010904/DTD/svg10.dtd">
<svg version="1.0" xmlns="http://www.w3.org/2000/svg"
 width="138.000000pt" height="138.000000pt" viewBox="0 0 138.000000 138.000000"
 preserveAspectRatio="xMidYMid meet">
<metadata>
Created by potrace 1.11, written by Peter Selinger 2001-2013
</metadata>
<g transform="translate(0.000000,138.000000) scale(0.100000,-0.100000)"
fill="#000000" stroke="none">
<path d="M50 1340 c0 -6 3 -9 8 -9 30 5 52 -4 58 -23 4 -13 7 -148 7 -300 0
-296 -2 -308 -49 -308 -13 0 -24 -3 -24 -7 0 -9 259 -8 268 1 3 3 -9 6 -27 6
-45 0 -52 28 -49 179 l3 126 38 0 c36 0 40 -3 74 -60 54 -89 137 -207 167
-235 24 -22 35 -24 122 -25 98 -1 130 8 70 19 -54 10 -131 90 -245 255 l-51
74 45 39 c89 79 92 197 6 250 -34 22 -48 23 -228 25 -118 1 -193 -2 -193 -7z
m331 -39 c30 -30 33 -43 31 -138 -2 -95 -46 -137 -136 -131 l-36 2 0 128 c0
115 2 130 20 148 31 31 85 27 121 -9z"/>
<path d="M1030 662 c-276 -63 -367 -387 -159 -565 63 -55 137 -80 245 -83 50
-2 108 2 129 7 21 6 47 12 58 15 25 4 36 21 37 54 1 14 3 44 6 67 3 24 3 43 0
43 -3 0 -14 -17 -25 -38 -75 -147 -237 -175 -352 -60 -59 59 -84 139 -81 264
2 134 64 239 163 273 110 39 214 -8 264 -119 16 -36 40 -58 30 -27 -2 6 -6 41
-10 76 -3 36 -8 68 -11 72 -18 30 -199 43 -294 21z"/>
</g>
</svg>
